<svg width="500" height="347" viewBox="0 0 500 347" fill="none" xmlns="http://www.w3.org/2000/svg">
<path d="M299.818 155.136H450.182V50.2501H299.818V155.136ZM375 129.364L319.068 90.4546V70.3637L375 109.25L430.954 70.3637V90.4546L375 129.364ZM36.7273 346.591C26.2576 346.591 17.5227 343.083 10.5227 336.068C3.52273 329.053 0.0151515 320.318 0 309.864V37.1365C0 26.6819 3.50758 17.9471 10.5227 10.9319C17.5379 3.91676 26.2651 0.40918 36.7045 0.40918H463.295C473.75 0.40918 482.485 3.91676 489.5 10.9319C496.515 17.9471 500.015 26.6819 500 37.1365V309.864C500 320.318 496.5 329.053 489.5 336.068C482.5 343.083 473.765 346.591 463.295 346.591H36.7273ZM181.818 224.182C197.561 224.182 210.97 218.644 222.045 207.568C233.121 196.492 238.651 183.083 238.636 167.341C238.621 151.599 233.091 138.205 222.045 127.159C211 116.114 197.591 110.576 181.818 110.546C166.045 110.515 152.636 116.046 141.591 127.136C130.545 138.227 125.015 151.636 125 167.364C124.985 183.091 130.515 196.492 141.591 207.568C152.667 218.644 166.076 224.197 181.818 224.182ZM50.3636 323.841H313.295C297.386 303.296 278.038 286.796 255.25 274.341C232.462 261.886 207.985 255.667 181.818 255.682C155.652 255.697 131.182 261.924 108.409 274.364C85.6364 286.803 66.2879 303.28 50.3636 323.841Z" fill="white"/>
</svg>
