<svg width="190" height="32" viewBox="0 0 190 32" fill="none" xmlns="http://www.w3.org/2000/svg">
<path d="M178.23 25.64C178.222 24.9031 178.361 24.1721 178.64 23.49C178.898 22.8418 179.286 22.2531 179.78 21.7597C180.273 21.2663 180.862 20.8785 181.51 20.62C182.193 20.346 182.924 20.2067 183.66 20.21C184.361 20.2049 185.057 20.3393 185.706 20.6053C186.355 20.8714 186.944 21.2639 187.44 21.76C187.937 22.2507 188.325 22.84 188.58 23.49C188.862 24.1715 189.005 24.9025 189 25.64C189.008 26.3616 188.865 27.0769 188.58 27.74C188.17 28.706 187.485 29.5302 186.61 30.1098C185.735 30.6895 184.709 30.999 183.66 31C182.922 31.0048 182.191 30.8619 181.51 30.58C180.863 30.3243 180.274 29.9399 179.78 29.45C179.3 28.9613 178.913 28.3884 178.64 27.76C178.356 27.09 178.216 26.3676 178.23 25.64Z" fill="#EF4E4F"/>
<path d="M1.31983 24.36H15.9998C16.7594 24.3985 17.5077 24.1645 18.1098 23.7C18.3558 23.4796 18.5525 23.2098 18.6871 22.9083C18.8218 22.6068 18.8914 22.2802 18.8914 21.95C18.8914 21.6198 18.8218 21.2932 18.6871 20.9917C18.5525 20.6902 18.3558 20.4204 18.1098 20.2C17.5077 19.7355 16.7594 19.5015 15.9998 19.54H9.86983C8.58958 19.5561 7.31764 19.3323 6.11983 18.88C5.03793 18.4578 4.05427 17.8179 3.22983 17C2.41358 16.1897 1.77948 15.2147 1.36983 14.14C0.917959 12.9595 0.694004 11.704 0.709833 10.44C0.693341 9.20197 0.917492 7.97254 1.36983 6.82C1.78696 5.78135 2.4211 4.84377 3.22983 4.07C4.06079 3.28461 5.04455 2.6787 6.11983 2.29C7.32214 1.85758 8.59223 1.6442 9.86983 1.66H24.8698V8.28H11.5098C10.7503 8.24145 10.002 8.47552 9.39983 8.94C9.1431 9.15407 8.93851 9.42382 8.80163 9.72879C8.66474 10.0337 8.59915 10.3659 8.60983 10.7C8.60068 11.0324 8.66701 11.3626 8.80384 11.6657C8.94068 11.9688 9.14445 12.237 9.39983 12.45C10.002 12.9145 10.7503 13.1485 11.5098 13.11H16.7198C18.1274 13.0917 19.5277 13.3149 20.8598 13.77C22.0364 14.1618 23.1215 14.7877 24.0498 15.61C24.9126 16.4139 25.5944 17.3923 26.0498 18.48C26.5413 19.6473 26.7864 20.9035 26.7698 22.17C26.7875 23.4139 26.5422 24.6475 26.0498 25.79C25.5903 26.8494 24.9082 27.7975 24.0498 28.57C23.1181 29.3733 22.0328 29.9789 20.8598 30.35C19.5236 30.785 18.125 30.9978 16.7198 30.98H1.31983V24.36Z" fill="#008279"/>
<path d="M57.0999 31H49.1899V24.46H38.1299V31H30.2199V14.14C30.2019 12.3215 30.5417 10.5173 31.2199 8.82997C31.8476 7.26821 32.7945 5.85471 33.9999 4.67997C35.2048 3.51732 36.6292 2.60627 38.1899 1.99997C41.7203 0.716968 45.5895 0.716968 49.1199 1.99997C50.7031 2.60634 52.1483 3.52449 53.3699 4.69997C54.5583 5.8807 55.4909 7.29333 56.1099 8.84998C56.7881 10.5373 57.1279 12.3415 57.1099 14.16L57.0999 31ZM49.1899 17.83V13.49C49.1898 12.7412 49.0648 11.9976 48.8199 11.29C48.5832 10.6104 48.2239 9.98002 47.7599 9.42998C47.2729 8.87333 46.6729 8.42676 45.9999 8.11997C45.2464 7.80314 44.4373 7.63994 43.6199 7.63994C42.8025 7.63994 41.9934 7.80314 41.2399 8.11997C40.5779 8.42597 39.9909 8.87309 39.5199 9.42998C39.0523 9.97746 38.6926 10.6086 38.4599 11.29C38.2101 11.9964 38.0849 12.7408 38.0899 13.49V17.83H49.1899Z" fill="#008279"/>
<path d="M70.2301 23.83C70.4154 24.0086 70.635 24.1476 70.8757 24.2387C71.1164 24.3298 71.373 24.3711 71.6301 24.36H86.2501V31H68.8601C67.8823 31.001 66.9127 30.8213 66.0001 30.47C65.1665 30.1572 64.4095 29.6697 63.78 29.0401C63.1504 28.4106 62.6629 27.6536 62.3501 26.82C61.9995 25.8905 61.8265 24.9034 61.8401 23.91V1.66003H69.7001V22.43C69.6878 22.6872 69.7286 22.9442 69.8197 23.1851C69.9109 23.4259 70.0506 23.6454 70.2301 23.83Z" fill="#008279"/>
<path d="M116.06 31H108.15V24.46H97.0899V31H89.1799V14.14C89.1619 12.3215 89.5017 10.5173 90.1799 8.82997C90.7987 7.27084 91.7352 5.85755 92.9299 4.67997C94.1436 3.51397 95.5785 2.60273 97.1499 1.99997C100.68 0.716968 104.549 0.716968 108.08 1.99997C109.663 2.60634 111.108 3.52449 112.33 4.69997C113.518 5.883 114.453 7.29483 115.08 8.84998C115.753 10.5387 116.093 12.342 116.08 14.16L116.06 31ZM108.15 17.85V13.49C108.15 12.7412 108.025 11.9976 107.78 11.29C107.543 10.6104 107.184 9.98002 106.72 9.42998C106.247 8.87563 105.66 8.42897 105 8.11997C104.246 7.80314 103.437 7.63994 102.62 7.63994C101.803 7.63994 100.993 7.80314 100.24 8.11997C99.5779 8.42597 98.9908 8.87309 98.5199 9.42998C98.0522 9.97746 97.6926 10.6086 97.4599 11.29C97.2101 11.9964 97.0849 12.7408 97.0899 13.49V17.83L108.15 17.85Z" fill="#008279"/>
<path d="M132.55 1.66003C134.746 1.61911 136.931 1.97481 139 2.71003C140.759 3.34194 142.35 4.36817 143.65 5.71003C144.912 7.03104 145.871 8.61098 146.46 10.34C147.135 12.268 147.473 14.2975 147.46 16.34C147.473 18.3825 147.135 20.4121 146.46 22.34C145.877 24.0912 144.903 25.6862 143.61 27.0033C142.317 28.3204 140.74 29.3248 139 29.94C136.92 30.6556 134.729 30.9942 132.53 30.94H127.8C126.807 30.9536 125.82 30.7806 124.89 30.43C124.057 30.1172 123.3 29.6297 122.67 29.0001C122.041 28.3706 121.553 27.6136 121.24 26.78C120.89 25.8505 120.717 24.8634 120.73 23.87V1.66003H132.55ZM128.66 23.66C128.644 23.7693 128.653 23.881 128.687 23.9862C128.721 24.0914 128.779 24.1871 128.857 24.2658C128.935 24.3444 129.03 24.4039 129.134 24.4393C129.239 24.4748 129.351 24.4853 129.46 24.47H130.68C133.016 24.6104 135.326 23.9274 137.21 22.54C138.75 21.2534 139.52 19.1734 139.52 16.3C139.52 13.4267 138.75 11.3534 137.21 10.08C135.334 8.67652 133.018 7.9886 130.68 8.14003H128.68L128.66 23.66Z" fill="#008279"/>
<path d="M159.2 31V21.37C157.023 20.6455 155.134 19.2439 153.81 17.37C152.255 15.1643 151.088 12.7089 150.36 10.11L147.79 1.62H156L158.25 9.47C158.456 10.2077 158.707 10.9323 159 11.64C159.261 12.2963 159.596 12.9204 160 13.5C160.368 14.0236 160.833 14.4717 161.37 14.82C161.885 15.1525 162.487 15.3264 163.1 15.32C163.716 15.3266 164.321 15.1528 164.84 14.82C165.373 14.4707 165.835 14.0227 166.2 13.5C166.604 12.9204 166.939 12.2963 167.2 11.64C167.504 10.9447 167.771 10.2337 168 9.51L170.25 1.66H178.48L176 10.15C175.273 12.7511 174.103 15.2072 172.54 17.41C171.22 19.2837 169.335 20.6855 167.16 21.41V31H159.2Z" fill="#008279"/>
</svg>
