<svg width="16" height="16" viewBox="0 0 16 16" fill="none" xmlns="http://www.w3.org/2000/svg">
<path d="M11.8432 4.157C11.7736 4.08731 11.6909 4.03202 11.5999 3.9943C11.5088 3.95658 11.4113 3.93716 11.3127 3.93716C11.2142 3.93716 11.1166 3.95658 11.0256 3.9943C10.9346 4.03202 10.8519 4.08731 10.7822 4.157L8.00024 6.94L5.21824 4.1575C5.07754 4.01681 4.88672 3.93776 4.68774 3.93776C4.48876 3.93776 4.29794 4.01681 4.15724 4.1575C4.01654 4.2982 3.9375 4.48903 3.9375 4.688C3.9375 4.88698 4.01654 5.07781 4.15724 5.2185L6.94024 8L4.15774 10.782C4.08807 10.8517 4.03281 10.9344 3.99511 11.0254C3.95741 11.1164 3.938 11.214 3.938 11.3125C3.938 11.5115 4.01704 11.7023 4.15774 11.843C4.29844 11.9837 4.48926 12.0627 4.68824 12.0627C4.88722 12.0627 5.07804 11.9837 5.21874 11.843L8.00024 9.06L10.7822 11.8425C10.9229 11.9832 11.1138 12.0622 11.3127 12.0622C11.5117 12.0622 11.7025 11.9832 11.8432 11.8425C11.9839 11.7018 12.063 11.511 12.063 11.312C12.063 11.113 11.9839 10.9222 11.8432 10.7815L9.06024 8L11.8427 5.218C11.9124 5.14835 11.9677 5.06565 12.0054 4.97463C12.0432 4.8836 12.0626 4.78604 12.0626 4.6875C12.0626 4.58897 12.0432 4.49141 12.0054 4.40038C11.9677 4.30936 11.9124 4.22665 11.8427 4.157" fill="white"/>
<path d="M3 0.5C2.6717 0.5 2.34661 0.564664 2.04329 0.690301C1.73998 0.815938 1.46438 1.00009 1.23223 1.23223C0.763392 1.70107 0.5 2.33696 0.5 3V13C0.5 13.663 0.763392 14.2989 1.23223 14.7678C1.46438 14.9999 1.73998 15.1841 2.04329 15.3097C2.34661 15.4353 2.6717 15.5 3 15.5H13C13.663 15.5 14.2989 15.2366 14.7678 14.7678C15.2366 14.2989 15.5 13.663 15.5 13V3C15.5 2.6717 15.4353 2.34661 15.3097 2.04329C15.1841 1.73998 14.9999 1.46438 14.7678 1.23223C14.5356 1.00009 14.26 0.815938 13.9567 0.690301C13.6534 0.564664 13.3283 0.5 13 0.5H3ZM1.5 3C1.5 2.60218 1.65804 2.22064 1.93934 1.93934C2.22064 1.65804 2.60218 1.5 3 1.5H13C13.3978 1.5 13.7794 1.65804 14.0607 1.93934C14.342 2.22064 14.5 2.60218 14.5 3V13C14.5 13.3978 14.342 13.7794 14.0607 14.0607C13.7794 14.342 13.3978 14.5 13 14.5H3C2.60218 14.5 2.22064 14.342 1.93934 14.0607C1.65804 13.7794 1.5 13.3978 1.5 13V3Z" fill="white"/>
</svg>
